<mxfile host="app.diagrams.net" modified="2023-01-09T16:03:11.412Z" agent="5.0 (Windows NT 10.0; Win64; x64) AppleWebKit/537.36 (KHTML, like Gecko) Chrome/107.0.0.0 Safari/537.36 OPR/93.0.0.0" version="20.8.3" etag="1HzunCFSf4Oc7cUb1S2_" type="github">
  <diagram id="_3_pIXkezDL_m9sIujSu" name="Страница 1">
    <mxGraphModel dx="1673" dy="1149" grid="1" gridSize="10" guides="1" tooltips="1" connect="1" arrows="1" fold="1" page="1" pageScale="1" pageWidth="827" pageHeight="1169" math="0" shadow="0">
      <root>
        <mxCell id="0" />
        <mxCell id="1" parent="0" />
        <mxCell id="JYF0FqFIY5jHWDaa28IL-1" value="" style="rounded=0;whiteSpace=wrap;html=1;fillColor=#d5e8d4;strokeColor=#82b366;" vertex="1" parent="1">
          <mxGeometry width="270" height="330" as="geometry" />
        </mxCell>
        <mxCell id="JYF0FqFIY5jHWDaa28IL-2" value="" style="rounded=0;whiteSpace=wrap;html=1;fillColor=#fff2cc;strokeColor=#d6b656;" vertex="1" parent="1">
          <mxGeometry x="50" y="10" width="170" height="30" as="geometry" />
        </mxCell>
        <mxCell id="JYF0FqFIY5jHWDaa28IL-3" value="главная страница" style="text;html=1;align=center;verticalAlign=middle;whiteSpace=wrap;rounded=0;" vertex="1" parent="1">
          <mxGeometry x="80" y="10" width="110" height="30" as="geometry" />
        </mxCell>
        <mxCell id="JYF0FqFIY5jHWDaa28IL-6" value="" style="rounded=0;whiteSpace=wrap;html=1;fillColor=#fff2cc;strokeColor=#d6b656;" vertex="1" parent="1">
          <mxGeometry x="50" y="50" width="170" height="30" as="geometry" />
        </mxCell>
        <mxCell id="JYF0FqFIY5jHWDaa28IL-7" value="регистрация/авторизация" style="text;html=1;align=center;verticalAlign=middle;whiteSpace=wrap;rounded=0;" vertex="1" parent="1">
          <mxGeometry x="60" y="50" width="150" height="30" as="geometry" />
        </mxCell>
        <mxCell id="JYF0FqFIY5jHWDaa28IL-8" value="" style="rounded=0;whiteSpace=wrap;html=1;fillColor=#fff2cc;strokeColor=#d6b656;" vertex="1" parent="1">
          <mxGeometry x="50" y="90" width="170" height="30" as="geometry" />
        </mxCell>
        <mxCell id="JYF0FqFIY5jHWDaa28IL-9" value="кошелёк" style="text;html=1;align=center;verticalAlign=middle;whiteSpace=wrap;rounded=0;" vertex="1" parent="1">
          <mxGeometry x="80" y="90" width="110" height="30" as="geometry" />
        </mxCell>
        <mxCell id="JYF0FqFIY5jHWDaa28IL-10" value="" style="rounded=0;whiteSpace=wrap;html=1;fillColor=#fff2cc;strokeColor=#d6b656;" vertex="1" parent="1">
          <mxGeometry x="50" y="130" width="170" height="30" as="geometry" />
        </mxCell>
        <mxCell id="JYF0FqFIY5jHWDaa28IL-11" value="рынок" style="text;html=1;align=center;verticalAlign=middle;whiteSpace=wrap;rounded=0;" vertex="1" parent="1">
          <mxGeometry x="80" y="130" width="110" height="30" as="geometry" />
        </mxCell>
        <mxCell id="JYF0FqFIY5jHWDaa28IL-12" value="" style="rounded=0;whiteSpace=wrap;html=1;fillColor=#fff2cc;strokeColor=#d6b656;" vertex="1" parent="1">
          <mxGeometry x="50" y="170" width="170" height="30" as="geometry" />
        </mxCell>
        <mxCell id="JYF0FqFIY5jHWDaa28IL-13" value="обменник" style="text;html=1;align=center;verticalAlign=middle;whiteSpace=wrap;rounded=0;" vertex="1" parent="1">
          <mxGeometry x="80" y="170" width="110" height="30" as="geometry" />
        </mxCell>
        <mxCell id="JYF0FqFIY5jHWDaa28IL-14" value="" style="rounded=0;whiteSpace=wrap;html=1;fillColor=#fff2cc;strokeColor=#d6b656;" vertex="1" parent="1">
          <mxGeometry x="50" y="210" width="170" height="30" as="geometry" />
        </mxCell>
        <mxCell id="JYF0FqFIY5jHWDaa28IL-15" value="P2P сделки" style="text;html=1;align=center;verticalAlign=middle;whiteSpace=wrap;rounded=0;" vertex="1" parent="1">
          <mxGeometry x="80" y="210" width="110" height="30" as="geometry" />
        </mxCell>
        <mxCell id="JYF0FqFIY5jHWDaa28IL-16" value="" style="rounded=0;whiteSpace=wrap;html=1;fillColor=#fff2cc;strokeColor=#d6b656;" vertex="1" parent="1">
          <mxGeometry x="50" y="250" width="170" height="30" as="geometry" />
        </mxCell>
        <mxCell id="JYF0FqFIY5jHWDaa28IL-17" value="NFT" style="text;html=1;align=center;verticalAlign=middle;whiteSpace=wrap;rounded=0;" vertex="1" parent="1">
          <mxGeometry x="80" y="250" width="110" height="30" as="geometry" />
        </mxCell>
        <mxCell id="JYF0FqFIY5jHWDaa28IL-18" value="" style="rounded=0;whiteSpace=wrap;html=1;fillColor=#fff2cc;strokeColor=#d6b656;" vertex="1" parent="1">
          <mxGeometry x="50" y="290" width="170" height="30" as="geometry" />
        </mxCell>
        <mxCell id="JYF0FqFIY5jHWDaa28IL-19" value="поддержка" style="text;html=1;align=center;verticalAlign=middle;whiteSpace=wrap;rounded=0;" vertex="1" parent="1">
          <mxGeometry x="80" y="290" width="110" height="30" as="geometry" />
        </mxCell>
        <mxCell id="JYF0FqFIY5jHWDaa28IL-20" value="" style="rounded=0;whiteSpace=wrap;html=1;fillColor=#dae8fc;strokeColor=#6c8ebf;" vertex="1" parent="1">
          <mxGeometry x="310" y="70" width="2170" height="2330" as="geometry" />
        </mxCell>
        <mxCell id="JYF0FqFIY5jHWDaa28IL-104" style="edgeStyle=orthogonalEdgeStyle;rounded=0;orthogonalLoop=1;jettySize=auto;html=1;entryX=0.5;entryY=0;entryDx=0;entryDy=0;" edge="1" parent="1" source="JYF0FqFIY5jHWDaa28IL-21" target="JYF0FqFIY5jHWDaa28IL-70">
          <mxGeometry relative="1" as="geometry" />
        </mxCell>
        <mxCell id="JYF0FqFIY5jHWDaa28IL-21" value="Главная страница" style="text;html=1;strokeColor=#d6b656;fillColor=#fff2cc;align=center;verticalAlign=middle;whiteSpace=wrap;rounded=0;" vertex="1" parent="1">
          <mxGeometry x="1040" y="90" width="160" height="30" as="geometry" />
        </mxCell>
        <mxCell id="JYF0FqFIY5jHWDaa28IL-22" value="" style="rounded=0;whiteSpace=wrap;html=1;fillColor=#e1d5e7;strokeColor=#9673a6;" vertex="1" parent="1">
          <mxGeometry x="1440" y="140" width="596" height="1090" as="geometry" />
        </mxCell>
        <mxCell id="JYF0FqFIY5jHWDaa28IL-32" style="edgeStyle=orthogonalEdgeStyle;rounded=0;orthogonalLoop=1;jettySize=auto;html=1;exitX=0;exitY=0.5;exitDx=0;exitDy=0;" edge="1" parent="1" source="JYF0FqFIY5jHWDaa28IL-23" target="JYF0FqFIY5jHWDaa28IL-24">
          <mxGeometry relative="1" as="geometry" />
        </mxCell>
        <mxCell id="JYF0FqFIY5jHWDaa28IL-47" style="edgeStyle=orthogonalEdgeStyle;rounded=0;orthogonalLoop=1;jettySize=auto;html=1;entryX=0.5;entryY=0;entryDx=0;entryDy=0;exitX=1;exitY=0.5;exitDx=0;exitDy=0;" edge="1" parent="1" source="JYF0FqFIY5jHWDaa28IL-23" target="JYF0FqFIY5jHWDaa28IL-36">
          <mxGeometry relative="1" as="geometry" />
        </mxCell>
        <mxCell id="JYF0FqFIY5jHWDaa28IL-23" value="Авторизация/регистрация" style="text;html=1;strokeColor=#d6b656;fillColor=#fff2cc;align=center;verticalAlign=middle;whiteSpace=wrap;rounded=0;" vertex="1" parent="1">
          <mxGeometry x="1658" y="180" width="160" height="30" as="geometry" />
        </mxCell>
        <mxCell id="JYF0FqFIY5jHWDaa28IL-31" value="" style="edgeStyle=orthogonalEdgeStyle;rounded=0;orthogonalLoop=1;jettySize=auto;html=1;" edge="1" parent="1" source="JYF0FqFIY5jHWDaa28IL-24" target="JYF0FqFIY5jHWDaa28IL-28">
          <mxGeometry relative="1" as="geometry" />
        </mxCell>
        <mxCell id="JYF0FqFIY5jHWDaa28IL-24" value="" style="rounded=0;whiteSpace=wrap;html=1;fillColor=#f8cecc;strokeColor=#b85450;" vertex="1" parent="1">
          <mxGeometry x="1470" y="260" width="200" height="217.5" as="geometry" />
        </mxCell>
        <mxCell id="JYF0FqFIY5jHWDaa28IL-25" value="Авторизация" style="text;html=1;strokeColor=#d6b656;fillColor=#fff2cc;align=center;verticalAlign=middle;whiteSpace=wrap;rounded=0;" vertex="1" parent="1">
          <mxGeometry x="1490" y="270" width="160" height="30" as="geometry" />
        </mxCell>
        <mxCell id="JYF0FqFIY5jHWDaa28IL-28" value="" style="rounded=0;whiteSpace=wrap;html=1;fillColor=#f8cecc;strokeColor=#b85450;" vertex="1" parent="1">
          <mxGeometry x="1495" y="770" width="150" height="90" as="geometry" />
        </mxCell>
        <mxCell id="JYF0FqFIY5jHWDaa28IL-30" value="на главную страницу" style="text;html=1;strokeColor=#d6b656;fillColor=#fff2cc;align=center;verticalAlign=middle;whiteSpace=wrap;rounded=0;" vertex="1" parent="1">
          <mxGeometry x="1525" y="800" width="90" height="30" as="geometry" />
        </mxCell>
        <mxCell id="JYF0FqFIY5jHWDaa28IL-33" value="" style="rounded=0;whiteSpace=wrap;html=1;fillColor=#fff2cc;strokeColor=#d6b656;" vertex="1" parent="1">
          <mxGeometry x="1510" y="320" width="120" height="140" as="geometry" />
        </mxCell>
        <mxCell id="JYF0FqFIY5jHWDaa28IL-26" value="email" style="text;html=1;strokeColor=#d6b656;fillColor=#fff2cc;align=center;verticalAlign=middle;whiteSpace=wrap;rounded=0;" vertex="1" parent="1">
          <mxGeometry x="1521.25" y="380" width="97.5" height="30" as="geometry" />
        </mxCell>
        <mxCell id="JYF0FqFIY5jHWDaa28IL-27" value="password" style="text;html=1;strokeColor=#d6b656;fillColor=#fff2cc;align=center;verticalAlign=middle;whiteSpace=wrap;rounded=0;" vertex="1" parent="1">
          <mxGeometry x="1520" y="420" width="100" height="30" as="geometry" />
        </mxCell>
        <mxCell id="JYF0FqFIY5jHWDaa28IL-34" value="ввести данные" style="text;html=1;strokeColor=#d6b656;fillColor=#fff2cc;align=center;verticalAlign=middle;whiteSpace=wrap;rounded=0;" vertex="1" parent="1">
          <mxGeometry x="1521.25" y="330" width="97.5" height="30" as="geometry" />
        </mxCell>
        <mxCell id="JYF0FqFIY5jHWDaa28IL-46" style="edgeStyle=orthogonalEdgeStyle;rounded=0;orthogonalLoop=1;jettySize=auto;html=1;entryX=0.5;entryY=0;entryDx=0;entryDy=0;exitX=0.5;exitY=1;exitDx=0;exitDy=0;" edge="1" parent="1" source="JYF0FqFIY5jHWDaa28IL-36" target="JYF0FqFIY5jHWDaa28IL-49">
          <mxGeometry relative="1" as="geometry">
            <mxPoint x="1800" y="450" as="sourcePoint" />
          </mxGeometry>
        </mxCell>
        <mxCell id="JYF0FqFIY5jHWDaa28IL-36" value="" style="rounded=0;whiteSpace=wrap;html=1;fillColor=#f8cecc;strokeColor=#b85450;" vertex="1" parent="1">
          <mxGeometry x="1810" y="260" width="200" height="380" as="geometry" />
        </mxCell>
        <mxCell id="JYF0FqFIY5jHWDaa28IL-37" value="Регистрация" style="text;html=1;strokeColor=#d6b656;fillColor=#fff2cc;align=center;verticalAlign=middle;whiteSpace=wrap;rounded=0;" vertex="1" parent="1">
          <mxGeometry x="1830" y="270" width="160" height="30" as="geometry" />
        </mxCell>
        <mxCell id="JYF0FqFIY5jHWDaa28IL-38" value="" style="rounded=0;whiteSpace=wrap;html=1;fillColor=#fff2cc;strokeColor=#d6b656;" vertex="1" parent="1">
          <mxGeometry x="1850" y="320" width="120" height="300" as="geometry" />
        </mxCell>
        <mxCell id="JYF0FqFIY5jHWDaa28IL-39" value="ввести данные" style="text;html=1;strokeColor=#d6b656;fillColor=#fff2cc;align=center;verticalAlign=middle;whiteSpace=wrap;rounded=0;" vertex="1" parent="1">
          <mxGeometry x="1861.25" y="330" width="97.5" height="30" as="geometry" />
        </mxCell>
        <mxCell id="JYF0FqFIY5jHWDaa28IL-40" value="фамилия" style="text;html=1;strokeColor=#d6b656;fillColor=#fff2cc;align=center;verticalAlign=middle;whiteSpace=wrap;rounded=0;" vertex="1" parent="1">
          <mxGeometry x="1861.25" y="380" width="97.5" height="30" as="geometry" />
        </mxCell>
        <mxCell id="JYF0FqFIY5jHWDaa28IL-41" value="имя" style="text;html=1;strokeColor=#d6b656;fillColor=#fff2cc;align=center;verticalAlign=middle;whiteSpace=wrap;rounded=0;" vertex="1" parent="1">
          <mxGeometry x="1861.25" y="420" width="97.5" height="30" as="geometry" />
        </mxCell>
        <mxCell id="JYF0FqFIY5jHWDaa28IL-42" value="страна/город" style="text;html=1;strokeColor=#d6b656;fillColor=#fff2cc;align=center;verticalAlign=middle;whiteSpace=wrap;rounded=0;" vertex="1" parent="1">
          <mxGeometry x="1861.25" y="460" width="97.5" height="30" as="geometry" />
        </mxCell>
        <mxCell id="JYF0FqFIY5jHWDaa28IL-43" value="email" style="text;html=1;strokeColor=#d6b656;fillColor=#fff2cc;align=center;verticalAlign=middle;whiteSpace=wrap;rounded=0;" vertex="1" parent="1">
          <mxGeometry x="1861.25" y="500" width="97.5" height="30" as="geometry" />
        </mxCell>
        <mxCell id="JYF0FqFIY5jHWDaa28IL-44" value="password" style="text;html=1;strokeColor=#d6b656;fillColor=#fff2cc;align=center;verticalAlign=middle;whiteSpace=wrap;rounded=0;" vertex="1" parent="1">
          <mxGeometry x="1861.25" y="540" width="97.5" height="30" as="geometry" />
        </mxCell>
        <mxCell id="JYF0FqFIY5jHWDaa28IL-45" value="password" style="text;html=1;strokeColor=#d6b656;fillColor=#fff2cc;align=center;verticalAlign=middle;whiteSpace=wrap;rounded=0;" vertex="1" parent="1">
          <mxGeometry x="1861.25" y="580" width="97.5" height="30" as="geometry" />
        </mxCell>
        <mxCell id="JYF0FqFIY5jHWDaa28IL-48" style="edgeStyle=orthogonalEdgeStyle;rounded=0;orthogonalLoop=1;jettySize=auto;html=1;" edge="1" parent="1" source="JYF0FqFIY5jHWDaa28IL-21">
          <mxGeometry relative="1" as="geometry">
            <mxPoint x="1738" y="140" as="targetPoint" />
          </mxGeometry>
        </mxCell>
        <mxCell id="JYF0FqFIY5jHWDaa28IL-67" style="edgeStyle=orthogonalEdgeStyle;rounded=0;orthogonalLoop=1;jettySize=auto;html=1;exitX=0.5;exitY=1;exitDx=0;exitDy=0;entryX=0.5;entryY=1;entryDx=0;entryDy=0;" edge="1" parent="1" source="JYF0FqFIY5jHWDaa28IL-49" target="JYF0FqFIY5jHWDaa28IL-28">
          <mxGeometry relative="1" as="geometry" />
        </mxCell>
        <mxCell id="JYF0FqFIY5jHWDaa28IL-49" value="" style="rounded=0;whiteSpace=wrap;html=1;fillColor=#f8cecc;strokeColor=#b85450;" vertex="1" parent="1">
          <mxGeometry x="1810" y="690" width="200" height="470" as="geometry" />
        </mxCell>
        <mxCell id="JYF0FqFIY5jHWDaa28IL-56" style="edgeStyle=orthogonalEdgeStyle;rounded=0;orthogonalLoop=1;jettySize=auto;html=1;exitX=0.5;exitY=1;exitDx=0;exitDy=0;entryX=0.5;entryY=0;entryDx=0;entryDy=0;" edge="1" parent="1" source="JYF0FqFIY5jHWDaa28IL-50" target="JYF0FqFIY5jHWDaa28IL-52">
          <mxGeometry relative="1" as="geometry" />
        </mxCell>
        <mxCell id="JYF0FqFIY5jHWDaa28IL-50" value="" style="rounded=0;whiteSpace=wrap;html=1;fillColor=#fff2cc;strokeColor=#d6b656;" vertex="1" parent="1">
          <mxGeometry x="1840" y="700" width="140" height="67.5" as="geometry" />
        </mxCell>
        <mxCell id="JYF0FqFIY5jHWDaa28IL-57" style="edgeStyle=orthogonalEdgeStyle;rounded=0;orthogonalLoop=1;jettySize=auto;html=1;exitX=0.5;exitY=1;exitDx=0;exitDy=0;entryX=0.5;entryY=0;entryDx=0;entryDy=0;" edge="1" parent="1" source="JYF0FqFIY5jHWDaa28IL-52" target="JYF0FqFIY5jHWDaa28IL-53">
          <mxGeometry relative="1" as="geometry" />
        </mxCell>
        <mxCell id="JYF0FqFIY5jHWDaa28IL-52" value="ввести код подтверждения" style="rounded=0;whiteSpace=wrap;html=1;fillColor=#fff2cc;strokeColor=#d6b656;" vertex="1" parent="1">
          <mxGeometry x="1850" y="780" width="120" height="60" as="geometry" />
        </mxCell>
        <mxCell id="JYF0FqFIY5jHWDaa28IL-63" style="edgeStyle=orthogonalEdgeStyle;rounded=0;orthogonalLoop=1;jettySize=auto;html=1;exitX=0.5;exitY=1;exitDx=0;exitDy=0;entryX=0.5;entryY=0;entryDx=0;entryDy=0;" edge="1" parent="1" source="JYF0FqFIY5jHWDaa28IL-53">
          <mxGeometry relative="1" as="geometry">
            <mxPoint x="1910" y="940" as="targetPoint" />
          </mxGeometry>
        </mxCell>
        <mxCell id="JYF0FqFIY5jHWDaa28IL-53" value="страница верификации" style="rounded=0;whiteSpace=wrap;html=1;fillColor=#fff2cc;strokeColor=#d6b656;" vertex="1" parent="1">
          <mxGeometry x="1850" y="860" width="120" height="60" as="geometry" />
        </mxCell>
        <mxCell id="JYF0FqFIY5jHWDaa28IL-54" value="Подтверждение email" style="text;html=1;strokeColor=none;fillColor=none;align=center;verticalAlign=middle;whiteSpace=wrap;rounded=0;" vertex="1" parent="1">
          <mxGeometry x="1880" y="719" width="60" height="30" as="geometry" />
        </mxCell>
        <mxCell id="JYF0FqFIY5jHWDaa28IL-68" style="edgeStyle=orthogonalEdgeStyle;rounded=0;orthogonalLoop=1;jettySize=auto;html=1;exitX=0.5;exitY=1;exitDx=0;exitDy=0;entryX=0.5;entryY=0;entryDx=0;entryDy=0;" edge="1" parent="1" source="JYF0FqFIY5jHWDaa28IL-59" target="JYF0FqFIY5jHWDaa28IL-66">
          <mxGeometry relative="1" as="geometry" />
        </mxCell>
        <mxCell id="JYF0FqFIY5jHWDaa28IL-59" value="Фото паспорта" style="swimlane;fontStyle=0;childLayout=stackLayout;horizontal=1;startSize=30;horizontalStack=0;resizeParent=1;resizeParentMax=0;resizeLast=0;collapsible=1;marginBottom=0;whiteSpace=wrap;html=1;fillColor=#fff2cc;strokeColor=#d6b656;" vertex="1" parent="1">
          <mxGeometry x="1850" y="940" width="120" height="120" as="geometry" />
        </mxCell>
        <mxCell id="JYF0FqFIY5jHWDaa28IL-60" value="селфи" style="text;strokeColor=#d6b656;fillColor=#fff2cc;align=left;verticalAlign=middle;spacingLeft=4;spacingRight=4;overflow=hidden;points=[[0,0.5],[1,0.5]];portConstraint=eastwest;rotatable=0;whiteSpace=wrap;html=1;" vertex="1" parent="JYF0FqFIY5jHWDaa28IL-59">
          <mxGeometry y="30" width="120" height="30" as="geometry" />
        </mxCell>
        <mxCell id="JYF0FqFIY5jHWDaa28IL-61" value="ФИО" style="text;strokeColor=#d6b656;fillColor=#fff2cc;align=left;verticalAlign=middle;spacingLeft=4;spacingRight=4;overflow=hidden;points=[[0,0.5],[1,0.5]];portConstraint=eastwest;rotatable=0;whiteSpace=wrap;html=1;" vertex="1" parent="JYF0FqFIY5jHWDaa28IL-59">
          <mxGeometry y="60" width="120" height="30" as="geometry" />
        </mxCell>
        <mxCell id="JYF0FqFIY5jHWDaa28IL-62" value="номер телефона" style="text;strokeColor=#d6b656;fillColor=#fff2cc;align=left;verticalAlign=middle;spacingLeft=4;spacingRight=4;overflow=hidden;points=[[0,0.5],[1,0.5]];portConstraint=eastwest;rotatable=0;whiteSpace=wrap;html=1;" vertex="1" parent="JYF0FqFIY5jHWDaa28IL-59">
          <mxGeometry y="90" width="120" height="30" as="geometry" />
        </mxCell>
        <mxCell id="JYF0FqFIY5jHWDaa28IL-66" value="подтверждение верификации" style="rounded=0;whiteSpace=wrap;html=1;fillColor=#fff2cc;strokeColor=#d6b656;" vertex="1" parent="1">
          <mxGeometry x="1850" y="1080" width="120" height="60" as="geometry" />
        </mxCell>
        <mxCell id="JYF0FqFIY5jHWDaa28IL-70" value="" style="rounded=0;whiteSpace=wrap;html=1;fillColor=#d5e8d4;strokeColor=#82b366;gradientColor=#97d077;glass=0;" vertex="1" parent="1">
          <mxGeometry x="915" y="140" width="410" height="500" as="geometry" />
        </mxCell>
        <mxCell id="JYF0FqFIY5jHWDaa28IL-91" style="edgeStyle=orthogonalEdgeStyle;rounded=0;orthogonalLoop=1;jettySize=auto;html=1;entryX=0.5;entryY=0;entryDx=0;entryDy=0;" edge="1" parent="1" source="JYF0FqFIY5jHWDaa28IL-71" target="JYF0FqFIY5jHWDaa28IL-72">
          <mxGeometry relative="1" as="geometry" />
        </mxCell>
        <mxCell id="JYF0FqFIY5jHWDaa28IL-96" style="edgeStyle=orthogonalEdgeStyle;rounded=0;orthogonalLoop=1;jettySize=auto;html=1;entryX=1;entryY=0.5;entryDx=0;entryDy=0;" edge="1" parent="1" source="JYF0FqFIY5jHWDaa28IL-71" target="JYF0FqFIY5jHWDaa28IL-83">
          <mxGeometry relative="1" as="geometry">
            <Array as="points">
              <mxPoint x="1280" y="200" />
              <mxPoint x="1280" y="535" />
            </Array>
          </mxGeometry>
        </mxCell>
        <mxCell id="JYF0FqFIY5jHWDaa28IL-71" value="Кошелек" style="rounded=0;whiteSpace=wrap;html=1;" vertex="1" parent="1">
          <mxGeometry x="1060" y="170" width="120" height="60" as="geometry" />
        </mxCell>
        <mxCell id="JYF0FqFIY5jHWDaa28IL-92" style="edgeStyle=orthogonalEdgeStyle;rounded=0;orthogonalLoop=1;jettySize=auto;html=1;" edge="1" parent="1" source="JYF0FqFIY5jHWDaa28IL-72" target="JYF0FqFIY5jHWDaa28IL-74">
          <mxGeometry relative="1" as="geometry" />
        </mxCell>
        <mxCell id="JYF0FqFIY5jHWDaa28IL-72" value="Создать кошелек" style="rounded=0;whiteSpace=wrap;html=1;" vertex="1" parent="1">
          <mxGeometry x="1035" y="265" width="170" height="60" as="geometry" />
        </mxCell>
        <mxCell id="JYF0FqFIY5jHWDaa28IL-74" value="Страница с акциями и криптой" style="swimlane;fontStyle=0;childLayout=stackLayout;horizontal=1;startSize=60;horizontalStack=0;resizeParent=1;resizeParentMax=0;resizeLast=0;collapsible=1;marginBottom=0;whiteSpace=wrap;html=1;rounded=0;shadow=0;glass=0;swimlaneLine=0;" vertex="1" parent="1">
          <mxGeometry x="1032.5" y="400" width="175" height="210" as="geometry">
            <mxRectangle x="1032.5" y="400" width="60" height="30" as="alternateBounds" />
          </mxGeometry>
        </mxCell>
        <mxCell id="JYF0FqFIY5jHWDaa28IL-75" value="btc = ......" style="text;align=left;verticalAlign=bottom;spacingLeft=4;spacingRight=4;overflow=hidden;points=[[0,0.5],[1,0.5]];portConstraint=eastwest;rotatable=0;whiteSpace=wrap;html=1;fillColor=default;" vertex="1" parent="JYF0FqFIY5jHWDaa28IL-74">
          <mxGeometry y="60" width="175" height="30" as="geometry" />
        </mxCell>
        <mxCell id="JYF0FqFIY5jHWDaa28IL-84" value="&lt;span style=&quot;color: rgb(0, 0, 0); font-family: Helvetica; font-size: 12px; font-style: normal; font-variant-ligatures: normal; font-variant-caps: normal; font-weight: 400; letter-spacing: normal; orphans: 2; text-align: left; text-indent: 0px; text-transform: none; widows: 2; word-spacing: 0px; -webkit-text-stroke-width: 0px; background-color: rgb(251, 251, 251); text-decoration-thickness: initial; text-decoration-style: initial; text-decoration-color: initial; float: none; display: inline !important;&quot;&gt;eth = ......&lt;/span&gt;&lt;br&gt;" style="text;align=left;verticalAlign=bottom;spacingLeft=4;spacingRight=4;overflow=hidden;points=[[0,0.5],[1,0.5]];portConstraint=eastwest;rotatable=0;whiteSpace=wrap;html=1;fillColor=default;" vertex="1" parent="JYF0FqFIY5jHWDaa28IL-74">
          <mxGeometry y="90" width="175" height="30" as="geometry" />
        </mxCell>
        <mxCell id="JYF0FqFIY5jHWDaa28IL-83" value="&lt;span style=&quot;color: rgb(0, 0, 0); font-family: Helvetica; font-size: 12px; font-style: normal; font-variant-ligatures: normal; font-variant-caps: normal; font-weight: 400; letter-spacing: normal; orphans: 2; text-align: left; text-indent: 0px; text-transform: none; widows: 2; word-spacing: 0px; -webkit-text-stroke-width: 0px; background-color: rgb(251, 251, 251); text-decoration-thickness: initial; text-decoration-style: initial; text-decoration-color: initial; float: none; display: inline !important;&quot;&gt;eYe = ......&lt;/span&gt;" style="text;align=left;verticalAlign=bottom;spacingLeft=4;spacingRight=4;overflow=hidden;points=[[0,0.5],[1,0.5]];portConstraint=eastwest;rotatable=0;whiteSpace=wrap;html=1;fillColor=default;" vertex="1" parent="JYF0FqFIY5jHWDaa28IL-74">
          <mxGeometry y="120" width="175" height="30" as="geometry" />
        </mxCell>
        <mxCell id="JYF0FqFIY5jHWDaa28IL-77" value="&lt;br&gt;&lt;span style=&quot;color: rgb(0, 0, 0); font-family: Helvetica; font-size: 12px; font-style: normal; font-variant-ligatures: normal; font-variant-caps: normal; font-weight: 400; letter-spacing: normal; orphans: 2; text-align: left; text-indent: 0px; text-transform: none; widows: 2; word-spacing: 0px; -webkit-text-stroke-width: 0px; background-color: rgb(251, 251, 251); text-decoration-thickness: initial; text-decoration-style: initial; text-decoration-color: initial; float: none; display: inline !important;&quot;&gt;tesla = ......&lt;/span&gt;" style="text;align=left;verticalAlign=bottom;spacingLeft=4;spacingRight=4;overflow=hidden;points=[[0,0.5],[1,0.5]];portConstraint=eastwest;rotatable=0;whiteSpace=wrap;html=1;fillColor=default;" vertex="1" parent="JYF0FqFIY5jHWDaa28IL-74">
          <mxGeometry y="150" width="175" height="30" as="geometry" />
        </mxCell>
        <mxCell id="JYF0FqFIY5jHWDaa28IL-76" value="&lt;br&gt;&lt;span style=&quot;color: rgb(0, 0, 0); font-family: Helvetica; font-size: 12px; font-style: normal; font-variant-ligatures: normal; font-variant-caps: normal; font-weight: 400; letter-spacing: normal; orphans: 2; text-align: left; text-indent: 0px; text-transform: none; widows: 2; word-spacing: 0px; -webkit-text-stroke-width: 0px; background-color: rgb(251, 251, 251); text-decoration-thickness: initial; text-decoration-style: initial; text-decoration-color: initial; float: none; display: inline !important;&quot;&gt;apple = ......&lt;/span&gt;&lt;br&gt;" style="text;align=left;verticalAlign=middle;spacingLeft=4;spacingRight=4;overflow=hidden;points=[[0,0.5],[1,0.5]];portConstraint=eastwest;rotatable=0;whiteSpace=wrap;html=1;glass=0;fillColor=default;" vertex="1" parent="JYF0FqFIY5jHWDaa28IL-74">
          <mxGeometry y="180" width="175" height="30" as="geometry" />
        </mxCell>
        <mxCell id="JYF0FqFIY5jHWDaa28IL-97" value="создание кошелька" style="text;html=1;strokeColor=none;fillColor=none;align=center;verticalAlign=middle;whiteSpace=wrap;rounded=0;shadow=0;glass=0;sketch=0;" vertex="1" parent="1">
          <mxGeometry x="1166" y="140" width="159" height="30" as="geometry" />
        </mxCell>
      </root>
    </mxGraphModel>
  </diagram>
</mxfile>
